<svg version="1" baseProfile="tiny" xmlns="http://www.w3.org/2000/svg" x="0" y="0" width="279" height="169" viewBox="0 0 279 169" xml:space="preserve"><path fill-rule="evenodd" d="M219 102c0 10-1 18-1 26 0 11-1 22-1 33 0 3-2 6-4 7 -3 2-6 0-9-3 -14-19-29-38-44-57 -1-1-1-2-3-2 4 10 8 21 11 31 3 8 6 16 9 23 2 6 0 8-6 8 -8 0-15 0-23 0 -4 0-7-2-8-6 -6-17-13-35-19-52 -1-2-1-3-2-5 -12 0-24 0-36 0 0 2-1 3-1 5 -1 17-2 34-2 50 0 6-1 8-8 8 -9 0-18 0-26 0 -5 0-7-2-6-7 1-20 2-39 4-59 0-4-1-5-4-7C21 85 6 69 1 46 -4 23 10 3 34 1c10-1 21-1 31-1C80 0 96 0 112 0c4 0 7 1 10 5 18 24 37 47 55 71 1 1 1 1 3 3 0-5 1-8 1-12 1-20 2-40 3-59 0-6 2-7 7-7 7 0 15 0 22 0 4 0 6 1 8 5 19 53 38 105 57 158 1 4-1 6-4 6 -9 0-18 0-26 0 -2 0-5-3-6-5 -7-19-14-38-21-57C221 106 220 105 219 102zM95 38c-15 0-30 0-45 0 -10 0-14 6-10 15 5 10 13 16 24 16 13 0 26 0 39 0 1 0 2 0 3 0C103 58 99 48 95 38z"/></svg>