<?xml version="1.0" encoding="utf-8"?>
<!DOCTYPE svg PUBLIC "-//W3C//DTD SVG 1.1//EN" "http://www.w3.org/Graphics/SVG/1.1/DTD/svg11.dtd">
<svg version="1.1" id="Layer_1" xmlns="http://www.w3.org/2000/svg" xmlns:xlink="http://www.w3.org/1999/xlink" x="0px" y="0px"
	 width="600px" height="200px" viewBox="0 0 600 200" enable-background="new 0 0 600 200" xml:space="preserve">
<g>
	<polygon fill-rule="evenodd" clip-rule="evenodd" fill="#FDC010" points="273.8,50.2 256.3,65.2 234.8,94.7 208.3,106.7 
		165.8,111.2 108.8,129.7 133.8,165.7 156.3,172.2 186.8,175.2 193.8,175.2 252.8,159.7 283.8,160.7 322.3,167.7 342.3,175.2 
		370.8,175.7 455.9,146.7 493.4,122.2 481.4,107.2 469.4,103.2 426.4,110.2 366.8,118.7 357.8,115.7 339.8,93.2 324.8,66.2 
		311.8,57.2 288.8,49.2 273.8,50.2 273.8,50.2 	"/>
	<polygon fill="none" stroke="#43729D" stroke-width="0.96" stroke-miterlimit="8" points="273.8,50.2 256.3,65.2 234.8,94.7 
		208.3,106.7 165.8,111.2 108.8,129.7 133.8,165.7 156.3,172.2 186.8,175.2 193.8,175.2 252.8,159.7 283.8,160.7 322.3,167.7 
		342.3,175.2 370.8,175.7 455.9,146.7 493.4,122.2 481.4,107.2 469.4,103.2 426.4,110.2 366.8,118.7 357.8,115.7 339.8,93.2 
		324.8,66.2 311.8,57.2 288.8,49.2 273.8,50.2 273.8,50.2 	"/>
	<path fill="none" stroke="#010101" stroke-width="6" stroke-miterlimit="8" d="M482.1,108.4c-1.9,0.1-5.3-4.5-11.3-4.5
		c-6,0-6.2,3.1-24.8,4.5c-18.6,1.4-65.1,16.8-87,8.6c-19.5-16.4-25.3-44.1-39.4-55.1c-14.1-11.1-35.7-13.5-45-11.2l-19.5,15.7
		L234.6,96c-10.9,2.5-22.1,9.9-33,12.4l-36,2.6l-58.1,19.1l14.6,12.7l21,9.7l14.3,0.7l13.1-3.4l17.6-13.5l59.6-13.9l32.6-2.2
		l50.6,22.1l24.8-3.7l24,3.7l33.8-3l29.6-5.2l24.8-13.9l11.3-7.1l1.1-4.9l13.9,13.9l-15,12L457,147.4l-83.3,27.4l-21,1.5l-13.5-1.9
		l-19.5-7.5l-37.5-7.1H253l-58.5,15.7l-10.9,0.4l-31.9-4.5l-16.9-4.9L108.6,132"/>
	<polygon fill-rule="evenodd" clip-rule="evenodd" fill="#FFFFFF" points="166.8,111.7 149.8,115.2 144.3,100.2 156.3,57.7 
		177.8,39.7 210.8,31.7 238.8,43.2 254.3,66.2 235.3,94.2 227.3,96.7 209.8,106.7 166.8,111.7 166.8,111.7 	"/>
	<polygon fill="none" stroke="#010101" stroke-width="6" stroke-miterlimit="8" points="166.8,111.7 149.8,115.2 144.3,100.2 
		156.3,57.7 177.8,39.7 210.8,31.7 238.8,43.2 254.3,66.2 235.3,94.2 227.3,96.7 209.8,106.7 166.8,111.7 166.8,111.7 	"/>
	<path fill-rule="evenodd" clip-rule="evenodd" fill="#010101" d="M167.9,111.6l41-5l22.5-12.5l0,0c-1.8-2.8-1.8-3.9-4.5-7.5
		c-2.7-3.6-9.3-11.5-11.5-14s0.6,0.3-1.5-1c-2.1-1.3-6.2-7.2-11-7s-11.5,0.4-17.5,8c-6,7.6-10.7,13.3-18.5,37.4"/>
	<path fill="none" stroke="#010101" stroke-width="6" stroke-miterlimit="8" d="M167.9,111.6l41-5l22.5-12.5l0,0
		c-1.8-2.8-1.8-3.9-4.5-7.5c-2.7-3.6-9.3-11.5-11.5-14s0.6,0.3-1.5-1c-2.1-1.3-6.2-7.2-11-7s-11.5,0.4-17.5,8
		c-6,7.6-10.7,13.3-18.5,37.4"/>
	<path fill-rule="evenodd" clip-rule="evenodd" fill="#FFFFFF" d="M345.8,73c0.2,4.6,1.8,21.4,2.3,25.9c0.4,4.4,0.3,0.5,0.4,0.8
		c0.3,0.6,0.4,1.3,0.8,1.9c0.6,1.2,0.2,0.5,1.1,2.1c0.1,0.4,0.1,0.8,0.2,1.1c0.1,0.2,0.3,0.4,0.4,0.6c0.2,0.4,0.3,0.8,0.4,1.1
		c0.1,0.2,0.3,0.4,0.4,0.6c0.4,0.7,0,0.5,0.4,1.3c0.1,0.2,0.3,0.4,0.4,0.6c0.6,1.3,0,0.7,0.9,1.3c0.2,0.3,1,1.5,1.3,1.9
		c0.4,0.5,1,0.8,1.3,1.3c0.1,0.2,0.2,0.4,0.4,0.6c0.3,0.3,0.9,0.7,1.3,0.9c1.8,1.3,0.9,0.9,2.1,1.3c0.2,0.1,0.4,0.3,0.6,0.4
		c0.4,0.2,0.8,0.2,1.1,0.4c0.3,0.2,0.6,0.4,0.9,0.6c0.2,0.1,0.6,0.2,0.6,0.2l38.4-3.2l71.5-12l-33.9-66.9
		c-11.8-8.9-14.6-8.7-21.8-10.3c-9.4-1.4-20.2-2.8-33.6,1.1c-13.8,4-37.7,39.9-37.7,46.9"/>
	<path fill="none" stroke="#010101" stroke-width="6" stroke-miterlimit="8" d="M345.8,73c0.2,4.6,1.8,21.4,2.3,25.9
		c0.4,4.4,0.3,0.5,0.4,0.8c0.3,0.6,0.4,1.3,0.8,1.9c0.6,1.2,0.2,0.5,1.1,2.1c0.1,0.4,0.1,0.8,0.2,1.1c0.1,0.2,0.3,0.4,0.4,0.6
		c0.2,0.4,0.3,0.8,0.4,1.1c0.1,0.2,0.3,0.4,0.4,0.6c0.4,0.7,0,0.5,0.4,1.3c0.1,0.2,0.3,0.4,0.4,0.6c0.6,1.3,0,0.7,0.9,1.3
		c0.2,0.3,1,1.5,1.3,1.9c0.4,0.5,1,0.8,1.3,1.3c0.1,0.2,0.2,0.4,0.4,0.6c0.3,0.3,0.9,0.7,1.3,0.9c1.8,1.3,0.9,0.9,2.1,1.3
		c0.2,0.1,0.4,0.3,0.6,0.4c0.4,0.2,0.8,0.2,1.1,0.4c0.3,0.2,0.6,0.4,0.9,0.6c0.2,0.1,0.6,0.2,0.6,0.2l38.4-3.2l71.5-12l-33.9-66.9
		c-11.8-8.9-14.6-8.7-21.8-10.3c-9.4-1.4-20.2-2.8-33.6,1.1c-13.8,4-37.7,39.9-37.7,46.9"/>
	<path fill-rule="evenodd" clip-rule="evenodd" fill="#010101" d="M367,114.6l31.8-1.7l47.8-6.4c1-0.8-24.8-46.6-38.6-45.2
		c-10.5-4.4-26.6,16.3-31.7,25.7c-3.6,10.2-6.5,21.6-9.7,27.4"/>
	<path fill="none" stroke="#010101" stroke-width="6" stroke-miterlimit="8" d="M367,114.6l31.8-1.7l47.8-6.4
		c1-0.8-24.8-46.6-38.6-45.2c-10.5-4.4-26.6,16.3-31.7,25.7c-3.6,10.2-6.5,21.6-9.7,27.4"/>
</g>
</svg>
