<?xml version="1.0" encoding="utf-8"?>
<!DOCTYPE svg PUBLIC "-//W3C//DTD SVG 1.1//EN" "http://www.w3.org/Graphics/SVG/1.1/DTD/svg11.dtd">
<svg version="1.1" id="Layer_1" xmlns="http://www.w3.org/2000/svg" xmlns:xlink="http://www.w3.org/1999/xlink" x="0px" y="0px"
	 width="600px" height="600px" viewBox="0 0 600 600" enable-background="new 0 0 600 600" xml:space="preserve">
<g>
	<path fill-rule="evenodd" clip-rule="evenodd" fill="#010101" d="M270.7,112.9L270.7,112.9c-2-8.8-2.2-13.4-2.8-20.9
		c-0.6-7.4-1.4-18.8-0.9-23.7s0.1-4.5,3.8-5.7c4.6,0.2,18,5.7,23.7,6.6c5.7,0.9,6.9-0.6,10.4-0.9c4.9-3.3,14.5-18.3,18.9-19
		c4.4-0.6,6.9,1.6,7.6,15.2l-3.8,66.4c-2.9,11.1-18.3,14.9-27.8,12c-9.5-2.9-21.8-26.5-29-29.5"/>
	<path fill="none" stroke="#010101" stroke-width="12" stroke-miterlimit="8" d="M270.7,112.9L270.7,112.9c-2-8.8-2.2-13.4-2.8-20.9
		c-0.6-7.4-1.4-18.8-0.9-23.7s0.1-4.5,3.8-5.7c4.6,0.2,18,5.7,23.7,6.6c5.7,0.9,6.9-0.6,10.4-0.9c4.9-3.3,14.5-18.3,18.9-19
		c4.4-0.6,6.9,1.6,7.6,15.2l-3.8,66.4c-2.9,11.1-18.3,14.9-27.8,12c-9.5-2.9-21.8-26.5-29-29.5"/>
	<path fill-rule="evenodd" clip-rule="evenodd" fill="#3A53A4" d="M86.9,310L86.9,310c-0.9-18.5-6-86.7-5.7-110.9
		s-2.5-18.8,7.6-34.1c10.1-15.3,39.2-46,53.1-57.8c13.9-11.8,18.9-9.6,30.3-13.3s26.8-7.6,37.9-8.5c11.1-0.9,19.9,0.3,28.4,2.8
		s15.6,6.9,22.7,12.3c7.1,5.4,15.6,15.6,19.9,19.9l5.7,5.7c2.5,3.9,6.6,21.5,13.3,21.8c6.6,0.3,19.4-15.9,26.5-19.9
		c7.1-4,6.6-2.5,16.1-3.9c9.5-1.4,25.7-3.7,40.7-4.6c10.6-0.5,34.7-3.9,49.3-0.9l37.9,19c5.5,4.4,7.7,1.1,9.5,14.2l0.9,64.4
		c-2.2,14.4-9.3,13.9-14.2,21.8c-4.9,7.9-12,20.3-15.2,25.6"/>
	<path fill="none" stroke="#010101" stroke-width="12" stroke-miterlimit="8" d="M86.9,310L86.9,310c-0.9-18.5-6-86.7-5.7-110.9
		s-2.5-18.8,7.6-34.1c10.1-15.3,39.2-46,53.1-57.8c13.9-11.8,18.9-9.6,30.3-13.3s26.8-7.6,37.9-8.5c11.1-0.9,19.9,0.3,28.4,2.8
		s15.6,6.9,22.7,12.3c7.1,5.4,15.6,15.6,19.9,19.9l5.7,5.7c2.5,3.9,6.6,21.5,13.3,21.8c6.6,0.3,19.4-15.9,26.5-19.9
		c7.1-4,6.6-2.5,16.1-3.9c9.5-1.4,25.7-3.7,40.7-4.6c10.6-0.5,34.7-3.9,49.3-0.9l37.9,19c5.5,4.4,7.7,1.1,9.5,14.2l0.9,64.4
		c-2.2,14.4-9.3,13.9-14.2,21.8c-4.9,7.9-12,20.3-15.2,25.6"/>
	<path fill-rule="evenodd" clip-rule="evenodd" fill="#010101" d="M85.9,312.4c1.4-0.8-0.1-30.2,1.3-31l86.5-50.7l61.2-15l57-7.8
		l106.8,0.6l71.4,20.4l-18,34.2"/>
	<path fill="none" stroke="#010101" stroke-width="12" stroke-miterlimit="8" d="M85.9,312.4c1.4-0.8-0.1-30.2,1.3-31l86.5-50.7
		l61.2-15l57-7.8l106.8,0.6l71.4,20.4l-18,34.2"/>
	<path fill-rule="evenodd" clip-rule="evenodd" fill="#FFFFFF" d="M48.1,546.8l-8.5-47.4l-5.7-124.1c0.3-1.2,2.4-12.1,3.8-14.2
		c4.5-6.7-2.4-1.7,10.4-13.3c12.8-11.5,49.1-42.3,66.3-55.9s25.6-19.6,36.9-25.6c11.4-6,23-7.6,31.3-10.4c8.2-2.8,12.9-4.7,18-6.6
		l24.6-9.5c10.3-1,32.8-0.7,49.2-1.1c28.1,1.4,85.3,8,129.8,8.6l58.7,20.8l10.4,2.8c4.7,2.5,13.4,9.2,18,12.3s4.7,3.3,9.5,6.6
		c4.7,3.3,12.6,8.1,18.9,13.3c6.3,5.2,12.8,7.6,18.9,18c6.2,10.4,13.7,31.9,18,44.5c4.3,12.6,6.3,18,7.6,31.3
		c0.4,14.9,4.3,21.9,0,48.3s-20.2,87-25.6,109.9"/>
	<path fill="none" stroke="#010101" stroke-width="12" stroke-miterlimit="8" d="M48.1,546.8l-8.5-47.4l-5.7-124.1
		c0.3-1.2,2.4-12.1,3.8-14.2c4.5-6.7-2.4-1.7,10.4-13.3c12.8-11.5,49.1-42.3,66.3-55.9s25.6-19.6,36.9-25.6c11.4-6,23-7.6,31.3-10.4
		c8.2-2.8,12.9-4.7,18-6.6l24.6-9.5c10.3-1,32.8-0.7,49.2-1.1c28.1,1.4,85.3,8,129.8,8.6l58.7,20.8l10.4,2.8
		c4.7,2.5,13.4,9.2,18,12.3s4.7,3.3,9.5,6.6c4.7,3.3,12.6,8.1,18.9,13.3c6.3,5.2,12.8,7.6,18.9,18c6.2,10.4,13.7,31.9,18,44.5
		c4.3,12.6,6.3,18,7.6,31.3c0.4,14.9,4.3,21.9,0,48.3s-20.2,87-25.6,109.9"/>
	<polygon fill-rule="evenodd" clip-rule="evenodd" fill="#FDC010" points="272.5,329 255,344 233.5,373.5 207,385.5 164.5,390 
		107.5,408.5 132.5,444.4 155,450.9 185.5,453.9 192.5,453.9 251.5,438.4 282.5,439.4 321,446.4 341,453.9 369.5,454.4 454.5,425.4 
		492.1,401 480,386 468,382 425,389 365.5,397.5 356.5,394.5 338.5,372 323.5,345 310.5,336 287.5,328 272.5,329 272.5,329 	"/>
	<polygon fill="none" stroke="#43729D" stroke-width="0.96" stroke-miterlimit="8" points="272.5,329 255,344 233.5,373.5 
		207,385.5 164.5,390 107.5,408.5 132.5,444.4 155,450.9 185.5,453.9 192.5,453.9 251.5,438.4 282.5,439.4 321,446.4 341,453.9 
		369.5,454.4 454.5,425.4 492.1,401 480,386 468,382 425,389 365.5,397.5 356.5,394.5 338.5,372 323.5,345 310.5,336 287.5,328 
		272.5,329 272.5,329 	"/>
	<path fill="none" stroke="#010101" stroke-width="6" stroke-miterlimit="8" d="M480.8,387.2c-1.9,0.1-5.3-4.5-11.3-4.5
		s-6.2,3.1-24.8,4.5s-65.1,16.8-87,8.6c-19.5-16.4-25.3-44.1-39.4-55.1s-35.7-13.5-45-11.2l-19.5,15.7l-20.6,29.6
		c-10.9,2.5-22.1,9.9-33,12.4l-36,2.6l-58.1,19.1l14.6,12.7l21,9.7l14.3,0.8l13.1-3.4l17.6-13.5l59.6-13.9l32.6-2.2l50.6,22.1
		l24.8-3.7l24,3.7l33.8-3l29.6-5.2l24.8-13.9l11.3-7.1l1.1-4.9l13.9,13.9l-15,12l-22.1,13.1l-83.3,27.4l-21,1.5l-13.5-1.9l-19.5-7.5
		l-37.5-7.1h-29.3l-58.5,15.7l-10.9,0.4l-31.9-4.5l-16.9-4.9l-26.3-34.5"/>
	<polygon fill-rule="evenodd" clip-rule="evenodd" fill="#FFFFFF" points="165.5,390.5 148.5,394 143,379 155,336.5 176.5,318.4 
		209.5,310.4 237.5,321.9 253,345 234,373 226,375.5 208.5,385.5 165.5,390.5 165.5,390.5 	"/>
	<polygon fill="none" stroke="#010101" stroke-width="6" stroke-miterlimit="8" points="165.5,390.5 148.5,394 143,379 155,336.5 
		176.5,318.4 209.5,310.4 237.5,321.9 253,345 234,373 226,375.5 208.5,385.5 165.5,390.5 165.5,390.5 	"/>
	<path fill-rule="evenodd" clip-rule="evenodd" fill="#010101" d="M166.5,390.4l41-5l22.5-12.5l0,0c-1.8-2.8-1.8-3.9-4.5-7.5
		s-9.3-11.5-11.5-14c-2.2-2.5,0.6,0.3-1.5-1c-2.1-1.3-6.2-7.2-11-7s-11.5,0.4-17.5,8c-6,7.6-10.7,13.3-18.5,37.4"/>
	<path fill="none" stroke="#010101" stroke-width="6" stroke-miterlimit="8" d="M166.5,390.4l41-5l22.5-12.5l0,0
		c-1.8-2.8-1.8-3.9-4.5-7.5s-9.3-11.5-11.5-14c-2.2-2.5,0.6,0.3-1.5-1c-2.1-1.3-6.2-7.2-11-7s-11.5,0.4-17.5,8
		c-6,7.6-10.7,13.3-18.5,37.4"/>
	<path fill-rule="evenodd" clip-rule="evenodd" fill="#FFFFFF" d="M344.5,351.7c0.2,4.6,1.8,21.4,2.3,25.9c0.4,4.4,0.3,0.5,0.4,0.7
		c0.3,0.6,0.4,1.3,0.8,1.9c0.6,1.2,0.2,0.5,1.1,2.1c0.1,0.4,0.1,0.8,0.2,1.1c0.1,0.2,0.3,0.4,0.4,0.6c0.2,0.4,0.3,0.8,0.4,1.1
		c0.1,0.2,0.3,0.4,0.4,0.6c0.4,0.7,0,0.5,0.4,1.3c0.1,0.2,0.3,0.4,0.4,0.6c0.6,1.3,0,0.7,0.9,1.3c0.2,0.3,1,1.5,1.3,1.9
		c0.4,0.5,1,0.8,1.3,1.3c0.1,0.2,0.2,0.4,0.4,0.6c0.3,0.3,0.9,0.7,1.3,0.9c1.8,1.3,0.9,0.9,2.1,1.3c0.2,0.1,0.4,0.3,0.6,0.4
		c0.4,0.2,0.8,0.2,1.1,0.4c0.3,0.2,0.6,0.4,0.9,0.6c0.2,0.1,0.6,0.2,0.6,0.2l38.4-3.2l71.5-12l-33.9-66.9
		c-11.8-8.9-14.6-8.8-21.8-10.3c-9.4-1.4-20.2-2.7-33.6,1.1c-13.8,4-37.7,39.9-37.7,46.9"/>
	<path fill="none" stroke="#010101" stroke-width="6" stroke-miterlimit="8" d="M344.5,351.7c0.2,4.6,1.8,21.4,2.3,25.9
		c0.4,4.4,0.3,0.5,0.4,0.7c0.3,0.6,0.4,1.3,0.8,1.9c0.6,1.2,0.2,0.5,1.1,2.1c0.1,0.4,0.1,0.8,0.2,1.1c0.1,0.2,0.3,0.4,0.4,0.6
		c0.2,0.4,0.3,0.8,0.4,1.1c0.1,0.2,0.3,0.4,0.4,0.6c0.4,0.7,0,0.5,0.4,1.3c0.1,0.2,0.3,0.4,0.4,0.6c0.6,1.3,0,0.7,0.9,1.3
		c0.2,0.3,1,1.5,1.3,1.9c0.4,0.5,1,0.8,1.3,1.3c0.1,0.2,0.2,0.4,0.4,0.6c0.3,0.3,0.9,0.7,1.3,0.9c1.8,1.3,0.9,0.9,2.1,1.3
		c0.2,0.1,0.4,0.3,0.6,0.4c0.4,0.2,0.8,0.2,1.1,0.4c0.3,0.2,0.6,0.4,0.9,0.6c0.2,0.1,0.6,0.2,0.6,0.2l38.4-3.2l71.5-12l-33.9-66.9
		c-11.8-8.9-14.6-8.8-21.8-10.3c-9.4-1.4-20.2-2.7-33.6,1.1c-13.8,4-37.7,39.9-37.7,46.9"/>
	<path fill-rule="evenodd" clip-rule="evenodd" fill="#010101" d="M365.7,393.4l31.8-1.7l47.8-6.4c1-0.9-24.8-46.6-38.6-45.2
		c-10.5-4.4-26.6,16.3-31.7,25.7c-3.6,10.2-6.5,21.6-9.7,27.4"/>
	<path fill="none" stroke="#010101" stroke-width="6" stroke-miterlimit="8" d="M365.7,393.4l31.8-1.7l47.8-6.4
		c1-0.9-24.8-46.6-38.6-45.2c-10.5-4.4-26.6,16.3-31.7,25.7c-3.6,10.2-6.5,21.6-9.7,27.4"/>
</g>
</svg>
