<?xml version="1.0" encoding="UTF-8" standalone="no"?>
<!-- Created with Inkscape (http://www.inkscape.org/) -->
<svg
   xmlns:svg="http://www.w3.org/2000/svg"
   xmlns="http://www.w3.org/2000/svg"
   version="1.0"
   width="499.99994"
   height="500.46967"
   id="svg2">
  <defs
     id="defs5" />
  <g
     transform="matrix(0.3757016,0,0,0.3757016,35.090744,-11.211749)"
     id="g2189">
    <path
       d="M 532.09965,1361.4877 C 496.0221,1359.8317 440.88263,1350.7956 400.59965,1339.9378 C 340.73503,1323.8019 272.87774,1294.1388 218.28813,1260.2422 C 177.12267,1234.681 130.56265,1197.2683 99.541528,1164.8249 C 48.305388,1111.2395 18.158208,1069.9203 -16.7715,1005.4082 C -61.685716,922.45566 -88.612262,821.84959 -92.945972,720.7964 C -94.792743,677.73348 -90.929299,623.88615 -82.875579,580.4388 C -81.295323,571.9138 -79.782518,563.1388 -79.513791,560.9388 C -78.162575,549.87673 -67.915022,511.11723 -59.477062,485.15353 C -47.332097,447.78333 -31.668733,412.27238 -10.20133,373.4388 C 48.728998,266.83646 139.24002,175.83768 246.59965,115.25393 C 276.59178,98.329174 273.5215,99.856593 306.17584,85.615605 C 377.39511,54.555946 461.35895,35.005285 541.12134,30.909443 C 568.81739,29.487236 574.51092,29.486875 602.62134,30.905547 C 684.24516,35.024924 769.8684,55.179519 840.59965,86.922541 C 947.74885,135.00932 1034.5281,204.20929 1106.8387,299.2281 C 1144.6158,348.86856 1174.7337,405.72224 1200.1854,475.4388 C 1216.5292,520.20755 1227.2285,566.30325 1234.1896,621.9388 L 1237.4427,647.9388 L 1237.4354,696.4388 L 1237.4281,744.9388 L 1234.1823,770.9388 C 1223.2461,858.54188 1202.1739,926.40314 1161.3704,1005.4239 C 1129.3472,1067.4407 1101.814,1105.0892 1045.0996,1164.4109 C 999.29145,1212.325 940.30515,1255.5539 876.89925,1287.6788 C 852.22904,1300.1781 846.91692,1302.7484 826.59965,1312.0166 C 822.19965,1314.0238 807.57465,1319.6713 794.09965,1324.5667 C 750.53155,1340.3948 700.45573,1351.9894 647.9598,1358.4042 C 625.61617,1361.1345 619.8383,1361.4537 585.9598,1361.8301 C 565.41172,1362.0583 541.17465,1361.9042 532.09965,1361.4877 z "
       style="fill:#fefe00"
       id="path2193" />
    <path
       d="M 532.09965,1361.4877 C 496.0221,1359.8317 440.88263,1350.7956 400.59965,1339.9378 C 340.73503,1323.8019 272.87774,1294.1388 218.28813,1260.2422 C 177.12267,1234.681 130.56265,1197.2683 99.541528,1164.8249 C 48.305388,1111.2395 18.158208,1069.9203 -16.7715,1005.4082 C -61.685716,922.45566 -88.612262,821.84959 -92.945972,720.7964 C -94.792743,677.73348 -90.929299,623.88615 -82.875579,580.4388 C -81.295323,571.9138 -79.782518,563.1388 -79.513791,560.9388 C -78.162575,549.87673 -67.915022,511.11723 -59.477062,485.15353 C -47.332097,447.78333 -31.668733,412.27238 -10.20133,373.4388 C 48.728998,266.83646 139.24002,175.83768 246.59965,115.25393 C 276.59178,98.329174 273.5215,99.856593 306.17584,85.615605 C 377.39511,54.555946 461.35895,35.005285 541.12134,30.909443 C 568.81739,29.487236 574.51092,29.486875 602.62134,30.905547 C 684.24516,35.024924 769.8684,55.179519 840.59965,86.922541 C 947.74885,135.00932 1034.5281,204.20929 1106.8387,299.2281 C 1144.6158,348.86856 1174.7337,405.72224 1200.1854,475.4388 C 1216.5292,520.20755 1227.2285,566.30325 1234.1896,621.9388 L 1237.4427,647.9388 L 1237.4354,696.4388 L 1237.4281,744.9388 L 1234.1823,770.9388 C 1223.2461,858.54188 1202.1739,926.40314 1161.3704,1005.4239 C 1129.3472,1067.4407 1101.814,1105.0892 1045.0996,1164.4109 C 999.29145,1212.325 940.30515,1255.5539 876.89925,1287.6788 C 852.22904,1300.1781 846.91692,1302.7484 826.59965,1312.0166 C 822.19965,1314.0238 807.57465,1319.6713 794.09965,1324.5667 C 750.53155,1340.3948 700.45573,1351.9894 647.9598,1358.4042 C 625.61617,1361.1345 619.8383,1361.4537 585.9598,1361.8301 C 565.41172,1362.0583 541.17465,1361.9042 532.09965,1361.4877 z M 599.88833,1343.3855 C 629.87866,1342.1073 665.72939,1337.986 699.60028,1331.9229 C 773.77459,1318.6453 861.57053,1282.1103 931.59965,1235.3797 C 987.14645,1198.3133 1041.1068,1148.0656 1081.3438,1095.9388 C 1127.4966,1036.1479 1153.1245,990.68749 1179.7164,921.4388 C 1207.5881,848.85753 1222.682,752.87036 1219.1329,670.77683 C 1216.2009,602.95598 1201.5794,528.80319 1179.695,470.76766 C 1149.4935,390.67595 1110.5433,327.26614 1048.8473,257.7515 C 1027.144,233.29779 996.33535,205.92135 958.67835,177.62795 C 921.30845,149.55021 888.39337,129.57123 849.51705,111.36857 C 768.35711,73.367904 697.00188,55.372446 603.84965,49.412396 L 572.09965,47.380972 L 540.34965,49.412396 C 493.6484,52.400428 454.78728,58.134106 414.18132,68.027629 C 387.60626,74.502562 379.60374,76.942598 353.09965,86.651927 C 252.66026,123.44622 164.37825,182.29046 92.756588,260.1832 C 64.778118,290.61142 40.457508,323.56237 16.650288,363.29634 C 3.043458,386.00597 -15.384012,421.28863 -16.433342,426.64081 C -16.616872,427.57692 -19.010076,433.42692 -21.751573,439.64081 C -31.553647,461.85825 -44.106324,496.66145 -50.926597,520.53065 C -88.338603,651.46306 -82.508469,795.78742 -34.756547,920.81853 C -2.476476,1005.339 34.763118,1066.0821 97.126488,1135.9388 C 128.87749,1171.5049 173.83126,1210.0031 214.09965,1236.1142 C 273.92008,1274.9034 333.08692,1302.1812 396.8477,1320.3669 C 445.88828,1334.3542 508.05597,1343.0487 567.88833,1344.2878 C 571.8971,1344.3709 586.2971,1343.9648 599.88833,1343.3855 z M 547.59965,1306.3176 C 532.05311,1305.6079 497.50203,1302.5922 484.40674,1300.802 C 480.88473,1300.3206 480.36067,1299.9656 481.13151,1298.5838 C 481.63624,1297.6791 482.72384,1295.2244 483.54841,1293.1289 C 484.37297,1291.0335 488.84989,1283.8021 493.49712,1277.0591 C 500.38202,1267.0693 503.43798,1263.6244 510.00064,1258.4551 C 521.83056,1249.1371 524.96252,1243.5846 526.64989,1228.9388 C 527.54676,1221.1544 529.18084,1217.3138 534.09167,1211.4483 C 536.29729,1208.814 539.47491,1203.7245 541.15306,1200.1384 C 544.09599,1193.8495 544.63622,1191.2939 547.06687,1172.1635 C 547.68009,1167.3371 548.43648,1162.7246 548.74773,1161.9135 C 549.22276,1160.6756 552.8543,1160.4388 571.36485,1160.4388 C 627.24134,1160.4388 682.98056,1150.024 740.25234,1128.8824 C 764.3575,1119.9841 788.90879,1107.522 817.48677,1089.6786 C 856.2148,1065.4977 887.88244,1039.0022 917.73985,1005.7996 C 953.37795,966.16875 987.33445,910.24758 1006.2361,860.05981 C 1010.561,848.57636 1014.0996,839.01386 1014.0996,838.80981 C 1014.0996,838.60575 815.42465,838.4388 572.59965,838.4388 C 329.77465,838.4388 131.09965,838.58419 131.09965,838.76188 C 131.09965,838.93958 134.67238,848.78938 139.03905,860.65032 C 158.67113,913.97585 191.36576,967.33561 229.5776,1008.4151 C 272.8856,1054.9732 311.81808,1084.1525 369.00088,1112.9106 L 392.11898,1124.5371 L 396.35931,1132.1679 C 401.77038,1141.9055 403.97062,1144.1679 408.73792,1144.8962 C 410.86187,1145.2206 413.94965,1145.971 415.59965,1146.5638 C 421.95739,1148.8477 423.1694,1148.7215 431.2378,1144.9352 L 439.25143,1141.1746 L 446.42554,1143.444 C 450.3713,1144.6922 457.35828,1146.5228 461.95216,1147.512 C 466.54605,1148.5012 470.45477,1149.4606 470.63821,1149.644 C 470.82165,1149.8275 467.90118,1156.2688 464.14827,1163.9582 C 460.39536,1171.6475 457.01276,1179.8325 456.63137,1182.1471 C 456.19353,1184.8043 454.07009,1189.0151 450.87033,1193.5714 C 445.83118,1200.7469 445.80001,1200.8392 445.32046,1210.0074 C 444.93007,1217.4709 445.14887,1219.671 446.46892,1221.5556 C 447.36582,1222.8361 448.09965,1224.2431 448.09965,1224.6822 C 448.09965,1225.1213 445.00541,1228.5261 441.22356,1232.2484 C 433.90325,1239.4535 430.33565,1245.3793 427.55068,1254.9593 C 426.14568,1259.7923 425.94695,1263.0466 426.48039,1272.4856 C 426.84068,1278.8608 427.55242,1285.5307 428.06202,1287.3076 C 428.86647,1290.1125 428.76527,1290.4715 427.29412,1290.0313 C 426.36216,1289.7524 415.92465,1286.8062 404.09965,1283.4841 C 347.40949,1267.5575 291.00761,1241.2648 233.09965,1203.7692 C 186.85277,1173.8243 129.81742,1120.9253 92.578228,1073.4388 C 33.605818,998.23868 -3.659182,916.95465 -25.882663,815.04679 C -31.708447,788.33211 -35.209101,758.30624 -36.939062,720.21364 C -39.027719,674.22282 -34.660479,618.05865 -25.799291,576.95241 C -15.888447,530.97693 0.714223,478.76276 15.963568,445.6113 C 19.841338,437.18118 23.307478,429.35934 23.666098,428.22942 C 26.162078,420.3653 47.800348,382.46042 62.650288,359.9388 C 87.682608,321.97444 110.93205,293.63346 140.33297,265.24391 C 152.57965,253.41851 172.27465,235.51334 184.09965,225.45465 C 201.63657,210.53724 210.39222,204.00516 231.59965,190.01765 C 288.97926,152.17255 334.40103,130.48947 392.85542,113.03868 C 472.85248,89.156616 545.69494,81.775409 630.42387,88.965606 C 657.31757,91.247836 663.02602,92.072324 689.39965,97.483644 C 732.73986,106.37615 767.09324,116.63524 802.09965,131.13971 C 860.08864,155.16671 911.74715,185.7851 959.09965,224.19477 C 978.79305,240.16896 986.33725,247.11847 1005.6736,267.09772 C 1034.2217,296.59477 1033.6385,295.93817 1051.2742,318.4388 C 1090.746,368.79913 1118.3618,417.90873 1143.2149,481.9388 C 1159.0201,522.65836 1172.3986,576.15561 1178.0432,621.20878 C 1183.9563,668.40488 1184.1053,711.46684 1178.5412,765.15421 C 1168.9756,857.45043 1132.1556,959.27803 1082.2549,1031.4388 C 1029.1697,1108.2045 984.92715,1152.9747 913.09965,1202.6112 C 825.01266,1263.4839 711.31531,1301.3853 601.76797,1306.3947 C 576.85827,1307.5338 574.15791,1307.53 547.59965,1306.3176 z M 194.72476,792.6888 C 195.04107,791.1763 198.29969,777.5638 201.96614,762.4388 L 208.63241,734.9388 L 232.54894,734.9388 L 256.46546,734.9388 L 264.25013,764.9388 C 268.5317,781.4388 272.0494,795.0513 272.06723,795.1888 C 272.08506,795.3263 279.24378,795.4388 287.9755,795.4388 L 303.85136,795.4388 L 276.1641,684.6888 L 248.47685,573.9388 L 232.91937,573.66407 L 217.36189,573.38935 L 189.73077,683.91072 C 174.53365,744.69747 162.09965,794.6586 162.09965,794.93545 C 162.09965,795.21229 169.3109,795.4388 178.12465,795.4388 L 194.14965,795.4388 L 194.72476,792.6888 z M 217.08523,702.6888 C 217.05095,700.90593 231.40181,642.86283 232.05261,642.15214 C 232.60141,641.55283 248.09965,700.19925 248.09965,702.87529 C 248.09965,703.73407 217.10174,703.54768 217.08523,702.6888 z M 366.09965,743.4388 L 366.09965,691.4388 L 381.34965,691.43965 L 396.59965,691.44051 L 411.02948,742.4216 C 418.96588,770.4612 425.74956,793.87234 426.10432,794.44636 C 426.52075,795.12015 432.43599,795.39235 442.79544,795.21441 L 458.84154,794.9388 L 443.01865,740.97407 C 434.31607,711.29347 427.28665,686.93511 427.39771,686.84437 C 427.50878,686.75364 429.97831,685.4845 432.88555,684.02406 C 443.68676,678.59814 450.9834,669.59019 455.77468,655.76663 C 458.21115,648.73705 458.49218,646.51114 458.53057,633.9388 C 458.56353,623.14257 458.15631,618.57772 456.75107,613.99108 C 451.94559,598.30624 442.43055,586.64273 429.09965,580.09605 C 416.63231,573.97345 412.26597,573.47573 370.84965,573.45616 L 334.09965,573.4388 L 334.09965,684.4388 L 334.09965,795.4388 L 350.09965,795.4388 L 366.09965,795.4388 L 366.09965,743.4388 z M 366.09965,632.9388 L 366.09965,604.4388 L 384.91815,604.4388 C 405.72848,604.4388 410.93646,605.36337 417.686,610.25605 C 419.83851,611.81639 422.94965,615.53332 424.59965,618.51591 C 427.35325,623.49339 427.59662,624.71908 427.56274,633.4388 C 427.53029,641.79359 427.19703,643.57113 424.79822,648.18423 C 423.12349,651.40485 420.56961,654.42295 418.18218,656.00288 C 411.16332,660.64774 406.39864,661.4388 385.44072,661.4388 L 366.09965,661.4388 L 366.09965,632.9388 z M 528.09965,759.83494 L 528.09965,724.23109 L 537.67645,706.58494 C 542.94368,696.87956 547.55618,688.63234 547.92645,688.25777 C 548.29671,687.8832 557.32843,711.8457 567.99694,741.50777 L 587.39423,795.4388 L 604.23884,795.4388 L 621.08346,795.4388 L 619.61253,791.6888 C 615.2607,780.59415 570.09965,652.78568 570.09965,651.56438 C 570.09965,650.76955 580.11215,633.23815 592.34965,612.60572 C 604.58715,591.97329 614.74965,574.7202 614.93298,574.26551 C 615.11632,573.81082 607.01632,573.45377 596.93298,573.47206 L 578.59965,573.50532 L 553.59965,617.42382 L 528.59965,661.34231 L 528.33925,617.39055 L 528.07885,573.4388 L 512.08925,573.4388 L 496.09965,573.4388 L 496.09965,684.4388 L 496.09965,795.4388 L 512.09965,795.4388 L 528.09965,795.4388 L 528.09965,759.83494 z M 704.46292,793.6888 C 704.73685,792.7263 709.29069,767.6388 714.58256,737.9388 C 719.87443,708.2388 724.46285,683.2638 724.77903,682.4388 C 725.09522,681.6138 729.10088,701.4138 733.6805,726.4388 C 738.26013,751.4638 742.99269,777.23858 744.19731,783.71608 L 746.38752,795.49336 L 759.94376,795.21608 L 773.5,794.9388 L 791.26433,684.9388 C 801.03471,624.4388 809.04464,574.6013 809.06416,574.1888 C 809.08368,573.7763 802.14504,573.4388 793.64496,573.4388 L 778.19028,573.4388 L 777.56717,576.76026 C 777.22446,578.58707 772.81019,605.21064 767.75769,635.92377 L 758.57132,691.76581 L 748.15382,632.6023 L 737.73633,573.4388 L 725.12934,573.4388 L 712.52236,573.4388 L 702.09965,630.9388 C 696.36716,662.5638 691.41611,688.4388 691.09732,688.4388 C 690.77852,688.4388 686.56309,663.5763 681.72968,633.1888 C 676.89628,602.8013 672.70343,576.9263 672.41225,575.6888 C 671.89147,573.4755 671.63104,573.4388 656.44593,573.4388 L 641.00902,573.4388 L 641.58004,576.6888 C 641.8941,578.4763 649.56986,626.9638 658.63729,684.4388 C 667.70471,741.9138 675.39323,790.4013 675.72287,792.1888 L 676.32223,795.4388 L 690.14355,795.4388 C 702.45032,795.4388 704.01945,795.24703 704.46292,793.6888 z M 855.72476,792.6888 C 856.04107,791.1763 859.29969,777.5638 862.96614,762.4388 L 869.63241,734.9388 L 893.54894,734.9388 L 917.46545,734.9388 L 925.25015,764.9388 C 929.53175,781.4388 933.04935,795.0513 933.06725,795.1888 C 933.08505,795.3263 940.24375,795.4388 948.97555,795.4388 L 964.85135,795.4388 L 937.16415,684.6888 L 909.47685,573.9388 L 893.91937,573.66407 L 878.36189,573.38935 L 850.73077,683.91072 C 835.53365,744.69747 823.09965,794.6586 823.09965,794.93545 C 823.09965,795.21229 830.3109,795.4388 839.12465,795.4388 L 855.14965,795.4388 L 855.72476,792.6888 z M 878.08523,702.6888 C 878.05095,700.90593 892.40181,642.86283 893.05261,642.15214 C 893.60141,641.55283 909.09965,700.19925 909.09965,702.87529 C 909.09965,703.73407 878.10174,703.54768 878.08523,702.6888 z M 1064.0996,745.154 L 1064.0996,694.8692 L 1091.1972,635.404 C 1106.1009,602.69814 1118.5282,575.36545 1118.8134,574.66469 C 1119.2241,573.65575 1115.7653,573.44762 1102.1947,573.66469 L 1085.0573,573.9388 L 1068.0046,610.9388 C 1058.6257,631.2888 1050.4072,649.24605 1049.7413,650.8438 C 1048.5746,653.64318 1047.851,652.29794 1029.8385,613.8438 L 1011.1465,573.9388 L 994.18815,573.66547 L 977.22965,573.39213 L 978.60165,576.16547 C 979.35625,577.6908 991.70205,605.02514 1006.0366,636.90845 L 1032.0996,694.87809 L 1032.0996,745.15845 L 1032.0996,795.4388 L 1048.0996,795.4388 L 1064.0996,795.4388 L 1064.0996,745.154 z M 56.099648,746.03997 L 56.099648,697.64115 L 80.849648,697.19165 C 100.71737,696.83082 106.6846,696.39752 111.09965,694.9951 C 129.83067,689.04526 141.39459,676.85661 146.731,657.4388 C 148.05261,652.62979 148.52777,647.16659 148.55744,636.4388 C 148.60204,620.31878 146.91563,612.59304 140.8584,601.16808 C 136.79339,593.50078 126.0984,583.49488 117.66703,579.47096 C 106.14086,573.97003 101.46807,573.47535 60.849648,573.45616 L 24.099648,573.4388 L 24.099648,683.9388 L 24.099648,794.4388 L 40.099648,794.4388 L 56.099648,794.4388 L 56.099648,746.03997 z M 56.099648,636.02474 L 56.099648,604.4388 L 74.918148,604.4388 C 96.499178,604.4388 101.3559,605.39839 107.83238,610.94202 C 116.65846,618.49681 120.3009,633.40335 116.63242,646.95579 C 114.35853,655.35625 110.74889,660.21771 104.02254,663.9388 L 98.599648,666.9388 L 77.349648,667.27474 L 56.099648,667.61067 L 56.099648,636.02474 z M 996.65365,510.6888 C 986.73455,488.10369 987.30475,489.22297 974.62055,467.4388 C 961.60235,445.081 943.26565,419.00894 924.70405,396.46499 C 899.62922,366.0103 865.31122,335.51662 826.23909,308.97271 C 816.35422,302.25736 755.85702,266.02071 685.7484,224.82149 L 562.61827,152.46428 L 555.10896,159.78763 C 550.97884,163.81548 545.34965,168.52065 542.59965,170.24357 C 534.40563,175.37727 529.09649,183.23539 514.55372,211.75471 L 501.02289,238.28953 L 496.31127,239.28958 C 493.71988,239.8396 481.56476,242.38771 469.29988,244.95204 C 450.41129,248.90125 442.9923,251.03997 420.79988,258.93346 C 348.06213,284.80512 288.93553,322.4177 239.04867,374.55206 C 222.82433,391.50733 198.18316,421.36715 196.33306,426.31424 C 195.99891,427.20775 191.8354,433.3388 187.08081,439.9388 C 176.96177,453.9854 161.90159,481.74042 149.2337,509.6888 L 140.28181,529.4388 L 572.58507,529.4388 L 1004.8883,529.4388 L 996.65365,510.6888 z M 388.23282,499.6888 C 385.20546,487.66165 385.66668,484.44064 390.41704,484.43506 C 397.97694,484.42618 402.08135,478.78292 402.09407,468.37997 C 402.09827,464.9501 402.9664,462.38177 405.59965,458.00882 C 409.77499,451.07497 409.96291,447.76798 406.5158,441.88594 C 404.21823,437.96543 404.05849,437.09354 405.07404,434.01639 C 405.70219,432.11309 406.40901,428.49816 406.64476,425.98321 C 407.19719,420.09008 410.23494,414.19072 414.15406,411.40006 C 417.00699,409.36859 417.96308,409.24838 426.16437,409.88995 C 436.64175,410.70958 434.79211,412.9608 441.5917,391.11317 C 445.91079,377.23559 446.16107,375.82875 445.50558,369.11317 C 444.70128,360.87287 441.40942,352.97767 432.71609,338.4388 C 429.59186,333.2138 426.78229,327.9502 426.47259,326.74191 C 425.52292,323.03683 427.88341,318.06681 434.10091,310.68042 C 440.47655,303.10615 447.91275,297.93101 458.23112,293.88728 C 466.27662,290.73427 474.1159,286.29479 482.09965,280.37024 C 496.36418,269.78486 504.18018,257.67881 531.44583,203.9388 C 538.50785,190.0197 541.78523,185.85295 551.09965,178.9516 C 555.22465,175.89525 559.72465,172.04962 561.09965,170.40575 L 563.59965,167.4169 L 678.85762,235.0675 L 794.11558,302.71811 L 790.45034,309.32845 C 788.43446,312.96414 784.49337,319.26597 781.69237,323.3325 L 776.59965,330.7262 L 761.46092,337.96975 C 744.36927,346.14773 719.64238,360.48895 713.53327,365.76706 C 706.04048,372.24064 700.12783,382.61162 691.48402,404.44218 C 687.02042,415.71532 682.80145,426.7388 682.10854,428.9388 C 681.41562,431.1388 676.91646,442.1638 672.1104,453.4388 C 664.03345,472.38731 661.25335,481.1465 658.06582,497.6888 L 656.95785,503.4388 L 523.0673,503.4388 L 389.17674,503.4388 L 388.23282,499.6888 z M 678.11698,501.1888 C 678.12651,499.9513 678.56189,494.8888 679.08448,489.9388 C 680.7033,474.60534 684.40062,462.36205 692.97589,443.9388 C 697.32793,434.5888 704.14821,419.5138 708.13207,410.4388 C 722.77146,377.09111 724.76803,374.46942 741.44898,366.6905 C 767.07987,354.73791 783.30583,346.24733 787.1445,342.77931 C 791.87724,338.50357 796.32813,331.9178 803.25676,318.9388 C 805.89924,313.9888 808.0699,310.41163 808.08046,310.98953 C 808.09101,311.56744 810.17315,313.04765 812.70743,314.2789 L 817.3152,316.51753 L 816.61224,336.22817 C 815.85163,357.5553 813.37151,371.87611 808.69831,381.92514 C 806.05039,387.61912 793.46398,405.81638 785.97189,414.78273 C 783.21539,418.08163 779.77732,423.0663 778.33175,425.85977 C 775.98579,430.39316 775.69339,432.12053 775.60995,441.9388 C 775.49931,454.95829 774.33991,457.80802 763.65561,471.32159 C 760.01036,475.93213 756.53905,480.65713 755.94158,481.82159 C 753.97262,485.65911 749.76383,489.4388 747.45961,489.4388 C 743.59631,489.4388 740.23044,487.31077 739.60747,484.47439 C 738.80027,480.79923 740.23986,477.57696 744.52209,473.47391 C 746.59852,471.48436 748.59285,468.3209 749.20584,466.04443 C 750.1241,462.63429 749.96095,461.41275 748.03922,457.30978 C 743.77115,448.19727 742.04923,449.02686 727.44001,467.2341 C 712.81939,485.45555 712.09965,486.81224 712.09965,496.15024 L 712.09965,503.4388 L 695.09965,503.4388 C 678.13155,503.4388 678.09968,503.43458 678.11698,501.1888 z M 1015.613,475.00741 L 1006.234,456.9388 L 1022.0901,448.72 L 1037.9461,440.5012 L 1040.3983,444.72 C 1041.7469,447.04034 1044.0856,451.4138 1045.5953,454.4388 C 1047.105,457.4638 1048.4649,460.08018 1048.6174,460.25298 C 1048.7699,460.42578 1052.0312,458.98759 1055.8649,457.057 L 1062.8351,453.54683 L 1057.5532,443.24282 L 1052.2713,432.9388 L 1064.6488,426.4855 C 1071.4565,422.93618 1077.2073,420.23618 1077.4284,420.4855 C 1077.6496,420.73481 1081.4453,427.93325 1085.8634,436.48203 L 1093.8963,452.02525 L 1101.007,448.50908 C 1104.9178,446.57518 1108.0011,444.74447 1107.8586,444.44083 C 1107.7162,444.13718 1102.2606,433.65965 1095.7351,421.15741 L 1083.8707,398.42608 L 1074.7351,403.31771 C 1069.7106,406.0081 1050.2996,416.18991 1031.5996,425.94394 C 1012.8996,435.69798 994.76795,445.23237 991.30695,447.13149 L 985.01425,450.58443 L 994.68835,469.26161 C 1000.009,479.53407 1005.9216,490.75957 1007.8273,494.20718 L 1011.2923,500.47557 L 1018.1422,496.7758 L 1024.992,493.07602 L 1015.613,475.00741 z M 133.06602,484.85615 C 137.01442,483.6836 139.74241,481.92648 143.59373,478.07515 C 155.86501,465.80387 156.05062,449.15273 144.04598,437.50263 C 141.01552,434.56166 120.47114,423.09008 112.07583,419.65111 C 111.49888,419.41478 108.78022,424.66494 108.561,426.4388 C 108.52701,426.7138 106.56205,430.73529 104.19443,435.37544 C 100.08268,443.43377 99.972828,443.87454 101.74465,445.20521 C 104.19544,447.04578 113.22126,451.66071 113.57878,451.25603 C 113.73293,451.08155 115.06074,448.54676 116.52946,445.62315 L 119.19988,440.30749 L 123.89976,443.00823 C 134.7966,449.26997 137.90764,453.31832 136.71365,459.6828 C 136.00988,463.43423 132.05539,468.12493 128.4366,469.50079 C 127.07967,470.0167 124.05542,470.4388 121.71605,470.4388 C 107.21602,470.4388 70.535948,451.33292 62.591968,439.64231 C 59.314928,434.81971 59.074938,426.01122 62.115288,422.14605 C 64.840268,418.68179 70.256508,416.94923 74.134798,418.30121 C 76.987008,419.29549 77.198198,419.16455 79.235508,415.13862 C 80.404428,412.82872 82.216078,409.72464 83.261398,408.24066 C 85.152408,405.55611 85.150518,405.53639 82.886648,404.32481 C 78.873838,402.17722 66.663618,401.9517 61.484768,403.92952 C 53.880308,406.83369 47.092468,414.00016 44.426978,421.9388 C 42.958288,426.31301 44.477998,439.29993 47.048058,444.33767 C 54.303198,458.55893 80.853078,475.8359 108.09965,484.06615 C 117.00245,486.75538 125.73965,487.03184 133.06602,484.85615 z M 173.00574,430.6888 C 174.79982,428.3513 175.9498,426.4388 175.56123,426.4388 C 175.17267,426.4388 175.32682,425.87 175.90378,425.17481 C 176.68603,424.23226 174.45032,420.84368 167.11248,411.85019 L 157.27215,399.78957 L 164.28638,390.61419 C 168.14421,385.56772 171.70909,381.4388 172.20833,381.4388 C 173.48685,381.4388 197.34782,391.48358 198.77615,392.62309 C 199.59729,393.27819 201.46347,391.65537 204.95471,387.25024 C 207.70584,383.77895 209.65142,380.6412 209.27821,380.27747 C 208.75706,379.76955 128.83855,345.40929 108.9117,337.12577 L 105.22374,335.5927 L 101.34846,340.76575 C 99.217048,343.61093 97.166378,346.45469 96.791408,347.08522 C 96.397348,347.74785 108.51529,363.66269 125.50739,384.79874 C 156.37116,423.1894 168.12644,436.89696 169.13667,435.67384 C 169.47058,435.26957 171.21166,433.0263 173.00574,430.6888 z M 137.33674,374.9388 C 131.7149,368.0638 127.29411,362.4388 127.51276,362.4388 C 127.93535,362.4388 156.43164,374.52686 156.84067,374.87963 C 157.06769,375.07543 148.09983,387.4388 147.73078,387.4388 C 147.6359,387.4388 142.95859,381.8138 137.33674,374.9388 z M 1001.2995,387.15246 C 1020.7145,372.68421 1037.1499,360.5108 1037.8224,360.10044 C 1038.6261,359.61007 1041.0741,362.09064 1044.9644,367.33738 L 1050.8834,375.32042 L 1056.9326,370.82519 L 1062.9818,366.32997 L 1046.3953,344.13438 C 1037.2727,331.92681 1029.2703,321.98944 1028.6123,322.05133 C 1026.2483,322.27368 1017.16,329.8057 1017.963,330.87704 C 1025.8725,341.42923 1027.8532,344.12091 1028.4168,345.08323 C 1028.8328,345.79349 1014.469,357.12027 990.55565,374.93929 L 952.02405,403.65091 L 954.38415,406.79486 C 955.68225,408.52403 957.80695,411.39881 959.10595,413.18327 C 961.32865,416.23683 961.60095,416.34038 963.73355,414.94305 C 964.97975,414.12648 981.88445,401.62071 1001.2995,387.15246 z M 960.56785,327.9388 C 975.30225,302.6388 987.96435,281.23963 988.70595,280.38508 C 989.87355,279.03966 989.27235,278.05749 984.22075,273.05865 L 978.38715,267.28592 L 931.99345,295.95863 C 906.47685,311.72862 884.5344,325.30795 883.23243,326.13493 L 880.86521,327.63852 L 886.19827,333.03866 C 889.13145,336.00874 891.89807,338.4388 892.34632,338.4388 C 892.79456,338.4388 898.84078,334.85683 905.78237,330.47886 L 918.40345,322.51893 L 921.00155,324.40348 C 922.43055,325.43998 926.39885,329.13445 929.82005,332.61341 L 936.04045,338.9388 L 928.16625,352.4388 L 920.29205,365.9388 L 925.87775,371.65161 C 930.85275,376.73979 931.58995,377.17715 932.62085,375.65161 C 933.25735,374.70957 945.83355,353.2388 960.56785,327.9388 z M 937.41045,319.27344 L 932.23915,314.10212 L 945.41675,305.85113 C 952.66445,301.31308 958.76405,297.76986 958.97145,297.97729 C 959.54995,298.55576 944.72995,323.72872 943.58645,324.10986 C 943.03385,324.29405 940.25475,322.11766 937.41045,319.27344 z M 223.30195,336.15427 C 215.76568,327.89675 207.813,319.1135 205.62931,316.63594 L 201.65897,312.13127 L 206.97105,307.37344 L 212.28313,302.61562 L 227.94139,312.67314 C 236.55343,318.20478 246.84177,324.86045 250.80436,327.46352 C 257.97368,332.17313 258.01789,332.18643 259.80436,330.17253 C 260.79177,329.05942 263.73801,326.44523 266.35157,324.36321 L 271.10349,320.57772 L 268.35157,318.6709 C 266.83801,317.62214 258.17465,312.32965 249.09965,306.90981 C 240.02465,301.48996 230.28206,295.58168 227.44946,293.78029 L 222.29926,290.50503 L 223.77909,285.45686 C 225.6571,279.05037 224.34473,272.05418 219.9928,265.27229 C 210.47827,250.44518 194.83196,245.02688 181.67041,252.0013 C 178.62154,253.61692 170.09269,260.4452 162.71742,267.17524 L 149.30783,279.41169 L 152.98907,283.17524 C 159.73964,290.07677 223.59454,360.59054 223.93065,361.51471 C 224.11271,362.01528 227.12874,359.89203 230.63295,356.79638 L 237.00424,351.16793 L 223.30195,336.15427 z M 184.69518,293.86289 C 180.99172,289.77381 176.76772,285.00934 175.30853,283.27519 L 172.65544,280.12217 L 179.12755,274.17838 C 182.6872,270.90929 187.1349,267.5691 189.01131,266.75573 C 199.85637,262.0547 212.17898,275.64957 206.69145,286.26128 C 205.91694,287.75902 202.16599,291.7549 198.356,295.14101 L 191.42876,301.29758 L 184.69518,293.86289 z M 890.59965,274.9273 C 905.99965,253.78205 918.95135,236.4718 919.38125,236.46009 C 919.81115,236.44838 923.54385,238.98356 927.67625,242.09382 C 931.85905,245.24202 935.53405,247.34765 935.96665,246.84382 C 937.38305,245.19426 942.75265,237.95844 943.43235,236.78347 C 943.84835,236.0644 935.77605,229.54507 922.05465,219.51831 C 909.92935,210.6579 899.61444,203.30279 899.13263,203.17363 C 898.2899,202.94773 890.05433,213.20435 890.14297,214.36941 C 890.17784,214.82772 901.30272,223.03486 905.30175,225.55247 C 906.04172,226.01833 869.9459,276.60706 851.46569,301.00437 L 849.14362,304.06993 L 855.37164,308.71945 C 858.79704,311.27669 861.82465,313.36993 862.09965,313.3711 C 862.37465,313.37226 875.19965,296.07256 890.59965,274.9273 z M 327.63334,282.83845 C 331.38382,279.08796 334.09965,271.56113 334.09965,264.91726 C 334.09965,242.12034 306.30016,198.10575 286.73973,189.93288 C 282.44685,188.1392 274.26032,187.98583 270.3967,189.62671 C 268.85832,190.28005 260.48279,195.04968 251.78441,200.22588 C 237.49277,208.73049 236.10621,209.79618 237.39161,211.28797 C 238.17395,212.19593 250.64386,232.5138 265.10251,256.4388 C 279.56116,280.3638 292.03014,300.91767 292.81135,302.11406 C 294.22032,304.27185 294.35226,304.21677 309.2404,295.25601 C 317.49517,290.2877 325.77199,284.69979 327.63334,282.83845 z M 297.68198,278.56922 C 296.33847,276.44096 286.94645,260.99622 276.81084,244.24759 L 258.38245,213.79554 L 266.54263,209.11717 C 275.22422,204.13987 278.12568,203.58718 283.58932,205.87004 C 291.0427,208.98426 303.5238,225.35669 313.30854,244.85507 C 320.77093,259.72562 320.94692,267.79578 313.94466,274.02489 C 311.65694,276.06001 301.53789,282.4388 300.59717,282.4388 C 300.33733,282.4388 299.0255,280.69749 297.68198,278.56922 z M 816.33587,269.48919 C 826.36991,264.7061 834.33081,253.15198 835.66285,241.4388 C 836.79116,231.51715 833.6765,222.35827 822.098,201.55043 C 818.61524,195.29151 818.32931,191.21445 821.05917,186.73735 C 826.63253,177.59673 840.23883,179.03992 843.00697,189.0653 C 843.50432,190.86656 843.54734,193.95382 843.10256,195.92589 L 842.29388,199.51147 L 849.21353,202.99615 L 856.13317,206.48083 L 857.3398,203.70981 C 859.28081,199.2523 858.93286,184.60835 856.78332,180.28914 C 852.15729,170.99376 842.40099,164.94382 832.09965,164.98265 C 816.70027,165.04069 804.59286,176.42527 803.3407,192.02464 C 802.72641,199.67737 803.82701,203.13326 811.11589,216.4388 C 820.70223,233.93827 821.9398,240.92853 816.80151,248.55325 C 810.14281,258.43408 796.62437,259.26749 791.05917,250.14025 C 788.75695,246.3645 788.50734,239.79215 790.48628,235.05588 L 791.87291,231.73721 L 785.11667,228.088 C 781.40073,226.08094 778.13835,224.4388 777.86693,224.4388 C 776.41678,224.4388 773.63975,236.7099 773.68026,242.9388 C 773.76058,255.28958 779.35436,264.11148 790.59965,269.62222 C 795.98201,272.25984 797.3717,272.52053 804.09965,272.15469 C 809.13279,271.88101 813.15746,271.00429 816.33587,269.48919 z M 399.23101,248.75469 L 420.86237,240.19968 L 418.39332,234.06924 C 417.03533,230.6975 415.61317,227.61075 415.23296,227.2098 C 414.85274,226.80886 406.22971,229.78235 396.07065,233.81758 L 377.59965,241.15435 L 371.321,225.54657 C 367.86774,216.9623 364.81196,209.0388 364.53038,207.9388 C 364.08617,206.20348 365.35295,205.42057 374.10255,202.0229 C 379.64882,199.86916 384.34487,197.84416 384.53822,197.5229 C 384.73156,197.20165 383.69937,193.94423 382.24446,190.2842 L 379.59917,183.62961 L 368.91412,187.92544 L 358.22908,192.22127 L 353.03931,179.28843 C 350.18493,172.17536 348.01831,166.2111 348.22459,166.0345 C 348.43087,165.8579 355.79965,162.90789 364.59965,159.47893 C 373.39965,156.04997 380.78434,153.06599 381.01008,152.84786 C 381.23582,152.62973 380.20256,149.3469 378.71394,145.55266 L 376.00736,138.65405 L 351.80351,148.40044 C 338.49139,153.76095 327.68655,158.55002 327.79277,159.04281 C 327.89898,159.5356 336.84127,182.2138 347.66452,209.4388 C 358.48777,236.6638 367.36337,259.46517 367.38807,260.10851 C 367.41847,260.90026 369.07556,260.63705 372.51632,259.29396 C 375.31215,258.20262 387.33376,253.45994 399.23101,248.75469 z M 449.32394,231.40399 C 455.32228,230.22481 455.9966,229.85845 455.56996,228.01045 C 451.84096,211.8581 441.16585,160.74021 441.38463,160.08386 C 441.54555,159.60111 452.34982,173.43348 465.39413,190.82246 C 478.43843,208.21145 489.53633,222.4388 490.05613,222.4388 C 490.57592,222.4388 493.29067,221.9478 496.0889,221.34769 C 500.09103,220.48938 501.07338,219.90262 500.69288,218.59769 C 500.42683,217.6853 495.15102,193.3138 488.96884,164.4388 C 482.78667,135.5638 477.69953,111.87382 477.66409,111.7944 C 477.37921,111.15602 461.63658,115.36956 461.75906,116.0514 C 461.84674,116.53947 464.88924,130.62131 468.52016,147.34437 C 472.15108,164.06744 474.9488,177.92298 474.73732,178.13447 C 474.52583,178.34595 465.23311,166.01345 454.08684,150.7289 C 442.94056,135.44434 433.51022,122.58792 433.13053,122.15907 C 432.75084,121.73021 428.86199,122.18022 424.48863,123.15907 L 416.53707,124.9388 L 428.27501,178.9388 C 434.73087,208.6388 440.03245,233.09944 440.0563,233.29579 C 440.08014,233.49213 440.66215,233.44422 441.34965,233.18932 C 442.03715,232.93442 445.62558,232.13102 449.32394,231.40399 z M 454.07216,1293.7237 C 444.51036,1287.091 442.86427,1282.9142 444.9382,1270.547 C 445.54769,1266.9125 446.34287,1261.6888 446.70527,1258.9388 C 447.55226,1252.5115 451.03781,1245.9355 455.24133,1242.8343 C 459.40251,1239.7643 461.01229,1236.9023 461.08866,1232.4388 C 461.1216,1230.5138 461.60521,1226.9577 462.16337,1224.5364 C 462.86866,1221.4769 462.84262,1218.5177 462.078,1214.8345 C 460.75983,1208.4849 461.28184,1207.234 468.00738,1200.6254 C 472.98463,1195.7346 472.99327,1195.7124 478.22631,1174.3037 C 478.71502,1172.3044 481.58644,1167.2842 484.60726,1163.1478 C 490.39986,1155.2159 490.90688,1153.4749 488.59965,1149.4388 C 487.81363,1148.0638 487.15457,1145.6679 487.13509,1144.1146 C 487.10991,1142.1077 485.55854,1139.6478 481.77448,1135.6146 C 478.84563,1132.4929 473.42883,1126.0276 469.73714,1121.2473 C 463.03906,1112.574 459.06685,1109.2769 453.82913,1108.0431 C 449.92497,1107.1233 447.61757,1108.6374 439.22084,1117.6285 C 435.16249,1121.9741 429.98749,1126.4793 427.72084,1127.64 C 423.51633,1129.7932 413.82837,1130.6658 411.36071,1129.1137 C 410.6793,1128.6851 407.64375,1123.1212 404.61506,1116.7495 C 397.22059,1101.1932 392.30497,1095.5492 381.75944,1090.5075 C 377.27156,1088.3619 369.13165,1085.1946 363.67076,1083.4691 C 357.4207,1081.4943 352.53569,1079.2728 350.48647,1077.4736 C 348.69599,1075.9015 346.41399,1074.3526 345.41536,1074.0316 C 344.41672,1073.7105 339.60979,1068.7341 334.7333,1062.9729 C 329.85681,1057.2117 323.70384,1051.1099 321.06003,1049.4134 C 318.41623,1047.7169 315.03427,1044.7308 313.54456,1042.7777 C 312.05486,1040.8246 309.42369,1038.6365 307.69753,1037.9152 C 303.77451,1036.2761 301.98828,1034.2649 298.83686,1027.9388 C 295.2732,1020.7851 294.64483,1017.3754 294.50606,1004.4388 C 294.43821,998.1138 294.05275,991.08925 293.64948,988.8287 C 293.06223,985.53685 293.3695,983.84463 295.19286,980.3287 C 299.65059,971.73296 297.28769,961.22449 288.18668,949.1703 C 285.75061,945.94375 284.09965,942.66681 284.09965,941.05809 C 284.09965,937.62043 287.22964,931.48061 292.16516,925.23671 C 296.22683,920.09831 298.08476,915.19042 298.09407,909.57495 C 298.10415,903.49846 301.48708,899.19491 309.00804,895.6909 C 314.67294,893.05162 316.96751,891.14967 323.08769,884.02039 C 330.9587,874.85159 334.86903,871.71335 342.43256,868.49515 C 347.23538,866.4516 348.17066,866.4388 492.68256,866.4388 C 572.66196,866.4388 638.09965,866.67198 638.09965,866.95697 C 638.09965,867.24196 635.80678,872.04421 633.00439,877.62863 C 624.56861,894.43888 613.74253,909.4154 598.44384,925.4388 C 590.82954,933.4138 583.125,941.8189 581.32265,944.1168 C 576.03714,950.85553 568.52951,967.94271 564.70472,981.9388 C 559.07283,1002.5476 556.77077,1008.4196 546.74321,1027.7544 C 532.89535,1054.4552 528.94764,1066.7796 527.14469,1088.9388 C 525.08277,1114.281 523.34191,1120.1962 514.63667,1131.4388 C 508.5895,1139.2486 497.6248,1158.5221 493.87186,1167.9388 C 490.9944,1175.1587 490.67597,1177.0114 490.60619,1186.9388 C 490.53133,1197.5868 490.41073,1198.1685 486.83742,1205.1178 C 484.80713,1209.0663 482.8562,1214.1091 482.50202,1216.324 C 481.92938,1219.9051 482.19515,1220.6881 484.90193,1223.3949 C 488.45467,1226.9477 489.8654,1227.1099 494.88949,1224.5437 C 498.00569,1222.952 499.19818,1221.3111 502.33834,1214.2937 C 505.47417,1207.286 506.54274,1202.9492 508.96521,1187.3985 C 512.32107,1165.8562 513.1413,1163.8367 525.60125,1146.4388 C 540.31847,1125.8891 542.57139,1119.1272 544.09259,1090.9388 C 545.66959,1061.7164 548.12235,1054.0029 562.93004,1031.6983 C 574.31365,1014.5513 575.8377,1011.1467 580.7278,991.9388 C 587.77373,964.26297 593.51886,954.91571 623.89839,921.70077 L 636.92098,907.46275 L 647.26031,886.95031 L 657.59965,866.43787 L 695.53744,866.68833 L 733.47523,866.9388 L 734.81915,872.24419 C 736.62575,879.3761 735.86217,881.61257 726.78489,895.77598 C 719.62717,906.94426 718.37284,909.55612 714.98418,920.34821 C 713.18268,926.08559 710.23038,928.11009 701.19879,929.80141 C 693.38302,931.26504 690.85194,933.15241 689.61551,938.4388 C 687.25209,948.54362 683.72703,950.44449 667.38949,950.42406 C 659.92597,950.41473 654.68227,949.94699 653.09965,949.14941 C 651.72465,948.45646 649.45566,945.77914 648.05746,943.19981 C 644.87299,937.32526 641.72533,933.94061 638.01883,932.40532 C 634.22822,930.8352 632.44788,931.6407 630.45033,935.8296 C 628.85376,939.17766 628.88098,939.41288 631.35085,943.61041 C 633.29709,946.91802 635.74924,949.00014 641.74869,952.43916 C 648.65119,956.39584 649.96208,957.62157 652.59965,962.58521 C 654.24965,965.69034 656.32933,969.06518 657.22115,970.08485 C 660.90365,974.29525 661.2477,976.11866 659.50335,982.18002 C 658.59184,985.34735 656.96065,989.69162 655.87848,991.83396 C 654.30139,994.95606 654.12809,996.2058 655.00527,998.13101 C 657.43512,1003.4639 655.39853,1010.0145 651.53355,1009.2975 C 650.38904,1009.0852 648.67336,1006.9999 647.33036,1004.1888 C 646.08225,1001.5763 644.4645,999.4388 643.73535,999.4388 C 640.09356,999.4388 637.23649,1007.8856 635.6175,1023.4388 C 634.4079,1035.0591 633.51009,1037.1889 628.81131,1039.5847 C 626.4949,1040.7657 622.64296,1043.2254 620.25144,1045.0506 C 615.29813,1048.831 602.10006,1054.2207 595.82274,1055.0266 C 592.70657,1055.4267 590.56131,1055.0275 587.63821,1053.5038 C 585.45942,1052.368 583.02395,1051.4388 582.22607,1051.4388 C 579.43134,1051.4388 572.09586,1056.5455 570.52384,1059.5854 C 568.13545,1064.204 569.38595,1067.0071 575.61143,1070.9895 C 581.04709,1074.4666 583.18882,1077.3172 584.51695,1082.8425 C 585.59174,1087.3139 583.51829,1090.7888 576.92562,1095.5649 C 569.98108,1100.5958 567.15013,1104.96 564.10153,1115.3343 C 561.9628,1122.6124 561.72642,1122.9301 549.22036,1135.3343 C 541.51456,1142.9774 535.23458,1150.1792 533.26602,1153.6305 C 529.37246,1160.4567 527.14062,1170.214 527.11701,1180.5131 L 527.09965,1188.0873 L 521.51403,1195.5131 C 512.05577,1208.0873 510.96763,1210.9572 510.23302,1225.2664 L 509.59414,1237.7111 L 501.59689,1244.7854 C 486.69323,1257.9691 481.67965,1263.9089 475.63383,1275.5451 C 469.39069,1287.561 466.2778,1291.7782 462.03019,1293.9747 C 458.38593,1295.8592 457.09193,1295.8184 454.07216,1293.7237 z M 598.40977,1090.6516 C 596.96489,1089.7329 592.09965,1082.6833 592.09965,1081.5083 C 592.09965,1081.0454 593.91646,1077.946 596.13701,1074.6207 C 599.57056,1069.4789 600.90083,1068.3334 605.03186,1066.9613 C 610.49006,1065.1484 615.10614,1065.7616 615.08773,1068.2972 C 615.07669,1069.8167 613.70807,1072.4134 605.59965,1086.2992 C 602.71986,1091.2309 600.97863,1092.285 598.40977,1090.6516 z M 630.61307,1054.8167 C 629.78069,1052.8245 629.09965,1050.6482 629.09965,1049.9804 C 629.09965,1049.3126 631.71105,1047.6395 634.90276,1046.2623 C 640.20627,1043.974 640.86328,1043.3357 642.53425,1038.8486 C 643.53986,1036.1482 644.72843,1033.5363 645.17551,1033.0444 C 646.46182,1031.6292 652.09965,1034.4242 652.09965,1036.4772 C 652.09965,1039.308 648.64371,1046.6388 645.60887,1050.2455 C 643.33712,1052.9453 634.64591,1058.4388 632.64631,1058.4388 C 632.36041,1058.4388 631.44545,1056.8088 630.61307,1054.8167 z M 663.24506,1018.2929 C 660.19391,1017.4147 660.02508,1017.1742 661.37855,1015.6331 C 662.19699,1014.7012 663.7997,1012.0822 664.94012,1009.813 C 666.0965,1007.512 668.54815,1004.7817 670.48303,1003.6401 C 675.92011,1000.4321 677.28828,997.47067 678.00307,987.36251 C 678.63676,978.40132 679.49398,976.49411 682.90602,976.45411 C 684.64413,976.43374 690.03155,982.38176 690.71697,985.07784 C 691.53618,988.30022 684.37652,1004.1384 680.51015,1007.6567 C 678.73143,1009.2753 677.00771,1011.669 676.67966,1012.976 C 676.27702,1014.5803 674.58239,1016.0164 671.46431,1017.3956 C 668.92392,1018.5194 666.79012,1019.3982 666.72253,1019.3486 C 666.65495,1019.299 665.09009,1018.8239 663.24506,1018.2929 z M 712.14772,945.48967 C 710.91415,944.70931 711.0617,943.7899 713.12876,939.37665 C 714.4669,936.51966 716.56613,933.52403 717.79371,932.71969 C 719.0213,931.91534 721.58128,928.93559 723.48256,926.09802 C 725.38384,923.26045 729.48694,918.4638 732.60057,915.4388 C 739.96639,908.28263 742.30915,903.48094 745.47528,889.05091 C 746.90988,882.51257 748.59234,876.55007 749.21409,875.80091 C 749.83584,875.05175 751.41444,874.4388 752.72209,874.4388 C 754.8341,874.4388 755.09965,874.8911 755.09965,878.48846 C 755.09965,880.71577 754.36938,883.95031 753.47683,885.67631 C 752.2751,888.00019 752.00786,890.28654 752.44695,894.48745 C 752.77306,897.60757 752.6274,901.59866 752.12324,903.35654 C 750.94326,907.47088 741.58734,922.52033 733.31705,933.60718 C 727.89339,940.87793 726.04323,942.61118 721.84189,944.35718 C 716.34347,946.64222 714.33965,946.87631 712.14772,945.48967 z "
       style="fill:#329800"
       id="path2191" />
  </g>
</svg>
