<?xml version="1.0" encoding="utf-8"?>
<!-- Generator: Adobe Illustrator 16.0.0, SVG Export Plug-In . SVG Version: 6.00 Build 0)  -->
<!DOCTYPE svg PUBLIC "-//W3C//DTD SVG 1.1//EN" "http://www.w3.org/Graphics/SVG/1.1/DTD/svg11.dtd">
<svg version="1.1"
	 id="Layer_1" xmlns:dc="http://purl.org/dc/elements/1.1/" xmlns:cc="http://web.resource.org/cc/" xmlns:rdf="http://www.w3.org/1999/02/22-rdf-syntax-ns#" xmlns:svg="http://www.w3.org/2000/svg" xmlns:sodipodi="http://sodipodi.sourceforge.net/DTD/sodipodi-0.dtd" xmlns:inkscape="http://www.inkscape.org/namespaces/inkscape" sodipodi:modified="true" inkscape:output_extension="org.inkscape.output.svg.inkscape" sodipodi:docbase="C:\Documents and Settings\ltljltlj\Desktop\Signs\Interstate Shields" sodipodi:docname="Interstate Route 3-Digit Template.svg" inkscape:version="0.45" sodipodi:version="0.32"
	 xmlns="http://www.w3.org/2000/svg" xmlns:xlink="http://www.w3.org/1999/xlink" x="0px" y="0px" width="751px" height="601px"
	 viewBox="0 0 751 601" enable-background="new 0 0 751 601" xml:space="preserve">
<sodipodi:namedview  inkscape:cy="299.99999" inkscape:cx="374.99999" inkscape:zoom="1.2866667" height="601px" width="751px" pagecolor="#ffffff" bordercolor="#666666" guidetolerance="10.0" objecttolerance="10.0" gridtolerance="10.0" borderopacity="1.0" id="base" inkscape:current-layer="Layer_1" inkscape:window-y="-4" inkscape:window-x="-4" inkscape:pageopacity="0.0" inkscape:pageshadow="2" inkscape:window-width="1280" inkscape:window-height="968">
	</sodipodi:namedview>
<g id="g5" transform="matrix(0.9986685,0,0,0.9986701,0.4993342,0.3989609)">
	<path id="path7" fill="#FFFFFF" stroke="#000000" stroke-width="1" d="M39,0.1C92.4,15.6,148.8,24,207.2,24
		c58.4,0,114.9-8.3,168.3-23.9C428.9,15.6,485.4,24,543.8,24S658.6,15.6,712,0.1c25,54.2,39,114.5,39,178.1
		c0,218.1-164.1,397.9-375.5,422.7C164.1,576.1,0,396.3,0,178.2C0,114.6,14,54.3,39,0.1z"/>
	<path id="path9" fill="#FFFFFF" stroke="#000000" stroke-width="1" stroke-linecap="round" stroke-linejoin="round" d="M39,0.1
		C92.4,15.6,148.8,24,207.2,24c58.4,0,114.9-8.3,168.3-23.9C428.9,15.6,485.4,24,543.8,24S658.6,15.6,712,0.1
		c25,54.2,39,114.5,39,178.1c0,218.1-164.1,397.9-375.5,422.7C164.1,576.1,0,396.3,0,178.2C0,114.6,14,54.3,39,0.1z"/>
</g>
<g id="g11" transform="matrix(1.0056032,0,0,1.0101352,-2.1013651,-3.7019056)">
	<path id="path13" fill="#003F87" d="M15,178.2c0-12.8,0.6-25.5,1.7-38h717.5c1.1,12.5,1.7,25.2,1.7,38
		c0,209.8-157.4,382.8-360.5,407.5C172.4,561.1,15,388,15,178.2z"/>
</g>
<g id="g15" transform="matrix(1.00604,0,0,1.0270828,-2.2645003,-3.152306)">
	<path id="path17" fill="#AF1E2D" d="M47.4,18.1C98.4,31.7,152,39,207.2,39c58.3,0,114.8-8.1,168.3-23.3C429,30.9,485.4,39,543.8,39
		c55.3,0,108.8-7.3,159.8-20.9c14.3,33.7,24.2,69.6,29,107.2H18.4C23.2,87.7,33.2,51.7,47.4,18.1z"/>
</g>
</svg>
