<?xml version="1.0" encoding="utf-8"?>
<!DOCTYPE svg PUBLIC "-//W3C//DTD SVG 1.1//EN" "http://www.w3.org/Graphics/SVG/1.1/DTD/svg11.dtd">
<svg version="1.1" id="Layer_1" xmlns="http://www.w3.org/2000/svg" x="0px" y="0px" width="601px" height="601px" viewBox="0 0 601 601" enable-background="new 0 0 601 601" xml:space="preserve">
<g id="g1600" transform="matrix(0.9983361,0,0,0.9983377,0.4991681,0.4986858)">
  <path id="path1602" fill="#FFFFFF" stroke="#000000" stroke-width="1" d="M80.9,0c34.7,10.6,71.6,16.3,109.8,16.3c38.2,0,75.1-5.7,109.8-16.3c34.7,10.6,71.6,16.3,109.8,16.3S485.4,10.6,520.1,0C570.8,64,601,144.9,601,232.9c0,181.7-129,333.3-300.5,368.1C129,566.2,0,414.6,0,232.9C0,144.9,30.2,64,80.9,0z"/>
    <path id="path1604" fill="#FFFFFF" stroke="#000000" stroke-width="1" stroke-linecap="round" stroke-linejoin="round" d="M80.9,0c34.7,10.6,71.6,16.3,109.8,16.3c38.2,0,75.1-5.7,109.8-16.3c34.7,10.6,71.6,16.3,109.8,16.3S485.4,10.6,520.1,0C570.8,64,601,144.9,601,232.9c0,181.7-129,333.3-300.5,368.1C129,566.2,0,414.6,0,232.9C0,144.9,30.2,64,80.9,0z"/>
    </g>
    <g id="g1606" transform="matrix(1.0070935,0,0,1.0102847,-2.1280324,-3.66885)">
      <path id="path1608" fill="#003F87" d="M15,232.9c0-32,4.2-63.1,12-92.7H574c7.8,29.6,12,60.6,12,92.7c0,173.4-122.4,318.2-285.5,352.8C137.4,551.1,15,406.3,15,232.9z"/>
      </g>
      <g id="g1610" transform="matrix(1.0125461,0,0,1.0271486,-3.7638021,-3.1017481)">
        <path id="path1612" fill="#AF1E2D" d="M31.4,125.2C43.6,85.9,62.5,49.5,86.5,17.3c33.2,9.1,68.1,14,104.1,14c38.1,0,75-5.5,109.8-15.6c34.8,10.2,71.7,15.6,109.8,15.6c36.1,0,71-4.9,104.1-14c24.1,32.2,42.9,68.6,55.2,107.9H31.4L31.4,125.2z"/>
        </g>
        <path id="text6060" fill="#FFFFFF" d="M109,113V50.5h8.8V113H109z M159.8,113l-19.3-41.9V113h-8.9V50.5h8.9L157.7,88V50.5h8.9V113
          H159.8z M195.7,58.8V113h-9V58.8h-11.4v-8.3h31.8v8.3H195.7z M215.7,113V50.5H245v8.8h-20.4V75h12.9v8.6h-12.9v20.6h22.8v8.8H215.7z
             M283.7,113l-8.3-29.4h-8.6V113h-8.9V50.5h18.6c2.4,0,4.6,0.4,6.7,1.2s3.8,1.9,5.2,3.4c1.5,1.4,2.6,3.2,3.4,5.3
              c0.8,2.1,1.2,4.4,1.2,6.9c0,3.7-0.7,6.9-2.2,9.5c-1.5,2.6-3.7,4.5-6.7,5.6l8.9,30.7H283.7z M284.1,67.2c0-2.4-0.7-4.4-2.2-5.8
                c-1.5-1.4-3.4-2.1-5.9-2.1h-9.2V75h9.2c2.6,0,4.6-0.7,6-2S284.1,69.7,284.1,67.2L284.1,67.2z M335.1,95.9c0,2.6-0.5,4.9-1.4,7.1
                  c-0.9,2.2-2.1,4.1-3.7,5.7c-1.6,1.6-3.4,2.9-5.5,3.9c-2.1,1-4.3,1.4-6.8,1.4c-2.7,0-5.2-0.5-7.4-1.6s-4-2.5-5.5-4.3
                    c-1.5-1.8-2.6-3.9-3.4-6.3c-0.8-2.4-1.2-4.8-1.2-7.4h8.8c0,1.3,0.2,2.6,0.5,3.9c0.3,1.3,0.9,2.4,1.6,3.5c0.7,1,1.6,1.9,2.7,2.5
                      c1.1,0.6,2.4,0.9,4,0.9c1.2,0,2.3-0.2,3.4-0.7c1.1-0.5,2-1.2,2.8-2.1s1.4-1.9,1.9-3c0.5-1.1,0.7-2.3,0.7-3.6c0-1.8-0.4-3.4-1.1-4.8
                        c-0.7-1.4-2-2.8-3.9-4.2c-0.3-0.3-0.4-0.5-0.4-0.5s-0.1-0.2-0.6-0.5c-0.4-0.3-1.4-0.9-2.7-1.8c-1.4-0.9-3.7-2.4-6.8-4.6
                          c-2.5-1.7-4.5-3.8-5.7-6.1s-1.9-4.9-1.9-7.7c0-2.2,0.4-4.3,1.2-6.3c0.8-2,1.9-3.7,3.4-5.2s3.2-2.7,5.1-3.5s4-1.3,6.2-1.3
                            c2.2,0,4.3,0.4,6.2,1.2s3.5,1.9,4.9,3.4c1.4,1.4,2.5,3.1,3.4,5.1c0.8,2,1.3,4.2,1.4,6.5h-8.6c-0.1-2.2-0.9-3.9-2.2-5.2s-3-2-5-2
                              c-2,0-3.8,0.7-5.2,2.1c-1.4,1.4-2.1,3.1-2.1,5.1c0,1.6,0.4,2.9,1.2,3.9c0.8,1.1,2.4,2.2,4.7,3.5c6,3.5,10.4,7,13.2,10.6
                                C333.7,87.3,335.1,91.4,335.1,95.9L335.1,95.9z M361.1,58.8V113h-9V58.8h-11.4v-8.3h31.8v8.3H361.1z M407.1,113l-4.4-17.1h-13.4
                                  l-4.1,17.1h-9l15.6-62.5h8.8l15.6,62.5H407.1z M395.9,69.2l-4.4,18h8.9L395.9,69.2z M440.3,58.8V113h-9V58.8h-11.4v-8.3h31.8v8.3
                                    H440.3z M460.2,113V50.5h29.3v8.8h-20.4V75h12.9v8.6h-12.9v20.6H492v8.8H460.2z"/>
                                    </svg>

