<?xml version="1.0" encoding="utf-8"?>
<!DOCTYPE svg PUBLIC "-//W3C//DTD SVG 1.1//EN" "http://www.w3.org/Graphics/SVG/1.1/DTD/svg11.dtd">
<svg version="1.1" id="Layer_1" xmlns="http://www.w3.org/2000/svg" x="0px" y="0px" width="601px" height="601px" viewBox="0 0 601 601" enable-background="new 0 0 601 601" xml:space="preserve">
<g id="g1600" transform="matrix(0.9983361,0,0,0.9983377,0.4991681,0.4986858)">
  <path id="path1602" fill="#FFFFFF" stroke="#000000" stroke-width="1" d="M80.9,0c34.7,10.6,71.6,16.3,109.8,16.3c38.2,0,75.1-5.7,109.8-16.3c34.7,10.6,71.6,16.3,109.8,16.3S485.4,10.6,520.1,0C570.8,64,601,144.9,601,232.9c0,181.7-129,333.3-300.5,368.1C129,566.2,0,414.6,0,232.9C0,144.9,30.2,64,80.9,0z"/>
  <path id="path1604" fill="#FFFFFF" stroke="#000000" stroke-width="1" stroke-linecap="round" stroke-linejoin="round" d="M80.9,0c34.7,10.6,71.6,16.3,109.8,16.3c38.2,0,75.1-5.7,109.8-16.3c34.7,10.6,71.6,16.3,109.8,16.3S485.4,10.6,520.1,0C570.8,64,601,144.9,601,232.9c0,181.7-129,333.3-300.5,368.1C129,566.2,0,414.6,0,232.9C0,144.9,30.2,64,80.9,0z"/>
</g>
<g id="g1606" transform="matrix(1.0070935,0,0,1.0102847,-2.1280324,-3.66885)">
  <path id="path1608" fill="#003F87" d="M15,232.9c0-32,4.2-63.1,12-92.7H574c7.8,29.6,12,60.6,12,92.7c0,173.4-122.4,318.2-285.5,352.8C137.4,551.1,15,406.3,15,232.9z"/>
</g>
<g id="g1610" transform="matrix(1.0125461,0,0,1.0271486,-3.7638021,-3.1017481)">
  <path id="path1612" fill="#AF1E2D" d="M31.4,125.2C43.6,85.9,62.5,49.5,86.5,17.3c33.2,9.1,68.1,14,104.1,14c38.1,0,75-5.5,109.8-15.6c34.8,10.2,71.7,15.6,109.8,15.6c36.1,0,71-4.9,104.1-14c24.1,32.2,42.9,68.6,55.2,107.9H31.4L31.4,125.2z"/>
</g>
</svg>
