<?xml version="1.0" encoding="utf-8"?>
<!-- Generator: Adobe Illustrator 16.0.0, SVG Export Plug-In . SVG Version: 6.00 Build 0)  -->
<!DOCTYPE svg PUBLIC "-//W3C//DTD SVG 1.1//EN" "http://www.w3.org/Graphics/SVG/1.1/DTD/svg11.dtd">
<svg version="1.1" id="Layer_1" xmlns="http://www.w3.org/2000/svg" xmlns:xlink="http://www.w3.org/1999/xlink" x="0px" y="0px"
	 width="164px" height="264px" viewBox="0 0 164 264" enable-background="new 0 0 164 264" xml:space="preserve">
<path fill-rule="evenodd" clip-rule="evenodd" fill="#1F1A17" d="M12.2,124.8c-1,0.4-2.1,0.6-3.2,0.6c-4.7,0-8.6-3.9-8.6-8.6
	c0-1.8,0.6-3.5,1.6-5l72.8-107c1.5-2.5,4.3-4.2,7.4-4.2c3.2,0,5.7,1.6,7.5,4.2l73,107.5c0.8,1.4,1.3,2.9,1.3,4.5
	c0,4.7-3.9,8.6-8.6,8.6c-1,0-2.2-0.2-3-0.6l-49.7-16.7l4.3,155.4H57l4.7-155.4L12.2,124.8z"/>
</svg>
