<!-- Generator: Adobe Illustrator 12.0.0, SVG Export Plug-In . SVG Version: 6.00 Build 51448)  -->
<!DOCTYPE svg PUBLIC "-//W3C//DTD SVG 1.1//EN" "http://www.w3.org/Graphics/SVG/1.1/DTD/svg11.dtd" [
	<!ENTITY ns_svg "http://www.w3.org/2000/svg">
	<!ENTITY ns_xlink "http://www.w3.org/1999/xlink">
]>
<svg  version="1.1" id="Layer_1" xmlns="&ns_svg;" xmlns:xlink="&ns_xlink;" width="750" height="600" viewBox="0 0 750 600"
	 overflow="visible" enable-background="new 0 0 750 600" xml:space="preserve">
<g>
	<g>
<!--<path d="M0,50C0,22.3857422,22.3852539,0,50,0h650c27.6142578,0,50,22.3857422,50,50v500c0,27.6152344-22.3857422,50-50,50H50
			c-27.6147461,0-50-22.3847656-50-50V50L0,50z"/>
		<path d="M375,300"/>-->
	</g>
	<path fill-rule="evenodd" clip-rule="evenodd" fill="#FFFFFF" stroke="#000000" d="M375,10.0019531
		c-36.3276367,22.4638672-79.1494141,35.4287109-125,35.4287109S161.3271484,32.4638672,125,10L10,125
		c21.1630859,30.0805664,33.5883789,66.7524414,33.5883789,106.3276367c0,28.5600586-6.4716797,55.6083984-18.0288086,79.7583008
		C15.5854492,331.9550781,9.9995117,355.3261719,9.9995117,380c0,88.3671875,71.6333008,160,160,160h100.1157227
		C312.4584961,540,350.2485352,559.4941406,375,589.9980469C399.7509766,559.4941406,437.5410156,540,479.8847656,540H580
		c88.3671875,0,160-71.6328125,160-160c0-24.6738281-5.5849609-48.0449219-15.5605469-68.9140625
		c-11.5566406-24.1499023-18.0273438-51.1982422-18.0273438-79.7583008C706.4121094,191.7524414,718.8369141,155.0805664,740,125
		L625,10c-36.328125,22.4638672-79.1503906,35.4306641-125,35.4306641
		C454.1494141,45.4306641,411.3271484,32.4658203,375,10.0019531z"/>
</g>
</svg>

